<svg xmlns="http://www.w3.org/2000/svg" xmlns:xlink="http://www.w3.org/1999/xlink" viewBox="0 0 281.21 189.21"><defs><style>.cls-1{fill:#231815;}.cls-2{fill:#fff;stroke:#231815;stroke-miterlimit:10;}</style></defs><g id="レイヤー_2" data-name="レイヤー 2"><g id="レイヤー_1-2" data-name="レイヤー 1"><image width="886" height="886" transform="translate(14.87) scale(0.22 0.21)" xlink:href="../campanyLogo.png"/><path class="cls-1" d="M24,60H8.7v8.66a52.05,52.05,0,0,0,.18,5.54,3,3,0,0,0,.87,2,4.13,4.13,0,0,0,2.67.63h.75V78H0V76.77H.76a4.27,4.27,0,0,0,2.6-.58,2.84,2.84,0,0,0,.93-1.81,48.94,48.94,0,0,0,.2-5.73V51.05a46.48,46.48,0,0,0-.2-5.53,2.55,2.55,0,0,0-.87-1.72,5.58,5.58,0,0,0-2.88-.48H0V42.11H13.17v1.21h-.54a5.83,5.83,0,0,0-2.8.44,2.33,2.33,0,0,0-.9,1.63,41.11,41.11,0,0,0-.23,5.66v7.12H24V51.05a47.32,47.32,0,0,0-.19-5.53,2.5,2.5,0,0,0-.86-1.72,5.58,5.58,0,0,0-2.88-.48h-.78V42.11H32.61v1.21h-.44a5.88,5.88,0,0,0-2.82.44,2.33,2.33,0,0,0-.9,1.63,41.11,41.11,0,0,0-.23,5.66v17.6c0,2.82.06,4.67.16,5.54a3,3,0,0,0,.88,2,4.16,4.16,0,0,0,2.68.63h.67V78H19.28V76.77h1a4.22,4.22,0,0,0,2.58-.58,2.79,2.79,0,0,0,.92-1.81A49.85,49.85,0,0,0,24,68.65Z"/><path class="cls-1" d="M46.47,43.32V42.11H59.86v1.21h-.63a5.88,5.88,0,0,0-2.82.44,2.33,2.33,0,0,0-.9,1.63,41.11,41.11,0,0,0-.23,5.66v17.6c0,2.82.06,4.67.16,5.54a3,3,0,0,0,.87,2,4.16,4.16,0,0,0,2.69.63h.86V78H46.47V76.77h.87a4.27,4.27,0,0,0,2.6-.58,2.79,2.79,0,0,0,.92-1.81,49.85,49.85,0,0,0,.19-5.73V51.05a47.32,47.32,0,0,0-.19-5.53A2.47,2.47,0,0,0,50,43.8a5.62,5.62,0,0,0-2.89-.48Z"/><path class="cls-2" d="M107.42,80.34l18.3-50.95h15.41v2.09h-1.85c-2.47,0-4.09.25-4.85.75A4,4,0,0,0,132.89,35a70.62,70.62,0,0,0-.39,9.72v30.2a92.12,92.12,0,0,0,.3,9.51,5.3,5.3,0,0,0,1.5,3.34c.8.73,2.34,1.09,4.61,1.09h2.22V91h-24V88.88h1.78c2.13,0,3.6-.33,4.43-1a4.8,4.8,0,0,0,1.59-3.11,78.78,78.78,0,0,0,.36-9.83V35.75L105.38,91h-1.74l-20-55.22V71.8A88.05,88.05,0,0,0,84,81.89a8.34,8.34,0,0,0,2.3,4.7,8.05,8.05,0,0,0,5.41,2.29V91h-18V88.88A8,8,0,0,0,81.41,82a81.43,81.43,0,0,0,.44-10.45V44.74a77.72,77.72,0,0,0-.35-9.49,4.37,4.37,0,0,0-1.48-3c-.76-.55-2.41-.82-5-.82H73.7V29.39H89Z"/><path class="cls-1" d="M180.94,64.76H169.82L169.07,67a26.88,26.88,0,0,0-1.69,6.46,3.18,3.18,0,0,0,.9,2.45,3.26,3.26,0,0,0,2.3.83V78h-8.7V76.77a4.36,4.36,0,0,0,2.89-1.68,22.43,22.43,0,0,0,2.29-5.52c.07-.26.42-1.28,1-3.07l8.51-24.9h.84l9.79,28.5,1.34,3.76a4.93,4.93,0,0,0,1.22,2,3.93,3.93,0,0,0,2.29.91V78h-11.5V76.77a7.24,7.24,0,0,0,2.86-.38,1.56,1.56,0,0,0,.74-1.52,17.86,17.86,0,0,0-1-3.47Zm-.36-1.19-5.19-15.3-5.16,15.3Z"/><path class="cls-1" d="M235.19,78h-7.88q-2.1-1.8-6.42-9.42C220,67,219,65.39,218,63.9A17.15,17.15,0,0,0,216,61.17a2.65,2.65,0,0,0-1.75-.49h-1.16v8c0,2.82.05,4.67.16,5.54a3,3,0,0,0,.86,2,4.18,4.18,0,0,0,2.69.63h1.4V78h-14V76.77h1a4.27,4.27,0,0,0,2.6-.58,2.79,2.79,0,0,0,.92-1.81,49.85,49.85,0,0,0,.19-5.73V51.05a47.32,47.32,0,0,0-.19-5.53,2.5,2.5,0,0,0-.86-1.72,5.67,5.67,0,0,0-2.9-.48h-.49V42.11l4.19-.27c2.79-.16,5-.24,6.65-.24a20.46,20.46,0,0,1,6.81.95,9,9,0,0,1,4.24,3.13,8.39,8.39,0,0,1,1.62,5.18,8.92,8.92,0,0,1-2.12,6,9.68,9.68,0,0,1-6.21,3.1q1.83,1.08,5.91,7.83,3.33,5.48,5.23,7.17a7,7,0,0,0,4.49,1.8ZM213.06,59.47c1.08,0,2.19-.09,3.34-.16a10.23,10.23,0,0,0,3-.59,4.92,4.92,0,0,0,2.07-1.39,6.49,6.49,0,0,0,1.24-2.39,12.76,12.76,0,0,0,.45-3.65,10.63,10.63,0,0,0-1.54-6.06Q220.08,43,214.89,43c-.53,0-1.14,0-1.83.11Z"/><path class="cls-1" d="M247.65,43.32V42.11H261v1.21h-.63a6,6,0,0,0-2.83.44,2.36,2.36,0,0,0-.89,1.63,41.11,41.11,0,0,0-.23,5.66v17.6c0,2.82.06,4.67.16,5.54a3,3,0,0,0,.87,2,4.16,4.16,0,0,0,2.69.63H261V78H247.65V76.77h.87a4.27,4.27,0,0,0,2.6-.58,2.79,2.79,0,0,0,.92-1.81,49.85,49.85,0,0,0,.19-5.73V51.05a47.32,47.32,0,0,0-.19-5.53,2.47,2.47,0,0,0-.87-1.72,5.62,5.62,0,0,0-2.89-.48Z"/><path class="cls-1" d="M276.57,76a3.06,3.06,0,0,1,.68-2,2,2,0,0,1,3.28,0,3,3,0,0,1,.68,2,3.08,3.08,0,0,1-.69,2,2.09,2.09,0,0,1-1.64.83,2,2,0,0,1-1.64-.86A3.14,3.14,0,0,1,276.57,76Z"/></g></g></svg>